<?xml version="1.0" standalone="no"?>
<!DOCTYPE svg PUBLIC "-//W3C//DTD SVG 20010904//EN"
 "http://www.w3.org/TR/2001/REC-SVG-20010904/DTD/svg10.dtd">
<svg version="1.0" xmlns="http://www.w3.org/2000/svg"
 width="1280.000000pt" height="708.000000pt" viewBox="0 0 1280.000000 708.000000"
 preserveAspectRatio="xMidYMid meet">
<metadata>
Created by potrace 1.15, written by Peter Selinger 2001-2017
</metadata>
<g transform="translate(0.000000,708.000000) scale(0.100000,-0.100000)"
fill="#000000" stroke="none">
<path d="M4879 6843 c-1 -340 1 -328 -93 -451 l-79 -103 31 -32 c18 -18 32
-36 32 -39 0 -4 -14 -9 -30 -13 -17 -4 -35 -15 -40 -25 -11 -20 -14 -252 -4
-312 6 -32 11 -38 30 -38 20 0 24 -5 24 -27 -2 -407 -29 -1174 -48 -1372 -7
-65 -7 -66 -37 -66 -29 -1 -30 -2 -33 -53 -3 -50 -2 -52 22 -52 15 0 26 -3 26
-7 0 -64 -134 -1209 -145 -1240 -3 -9 -26 -13 -70 -13 -36 0 -65 -3 -65 -6 0
-4 14 -52 30 -109 l31 -102 -31 -67 c-35 -80 -36 -86 -10 -86 11 0 20 -3 20
-6 0 -3 -55 -172 -121 -375 l-121 -369 -109 0 c-87 0 -111 -3 -115 -15 -3 -8
10 -41 30 -73 20 -33 36 -62 36 -66 0 -3 -15 -6 -34 -6 -51 0 -56 -13 -40
-115 7 -49 14 -95 14 -102 0 -6 7 -13 15 -15 11 -2 -81 -155 -316 -525 l-332
-523 -58 0 -59 0 0 -55 0 -55 370 0 370 0 0 55 0 55 55 0 55 0 0 44 c0 25 -4
47 -9 50 -10 6 3 99 25 176 45 158 175 325 302 389 165 83 325 116 552 115
144 -1 177 -4 262 -27 247 -65 399 -187 498 -398 58 -124 75 -225 54 -326 -4
-20 0 -22 53 -25 l58 -3 3 -53 3 -52 370 0 370 0 -3 53 -3 52 -72 5 -73 5
-335 519 c-184 285 -335 520 -335 522 0 2 6 4 14 4 18 0 23 23 32 137 l6 92
-46 3 -46 3 50 78 49 77 -128 0 -128 0 -122 369 c-66 203 -121 372 -121 375 0
3 11 6 24 6 14 0 27 3 29 8 3 4 -13 38 -35 76 l-40 68 39 107 40 106 -77 3
-77 3 -22 158 c-19 142 -99 846 -117 1029 l-7 72 27 0 c25 0 26 3 26 50 0 43
-3 50 -20 51 -31 2 -38 4 -44 10 -12 11 -40 575 -62 1256 l-7 201 24 4 c23 3
24 8 32 103 9 111 2 232 -14 251 -6 7 -24 16 -41 19 l-30 7 31 32 c17 18 31
37 31 43 0 6 -36 57 -80 114 l-80 102 0 289 c0 249 -2 288 -15 288 -13 0 -15
-33 -16 -237z m-34 -1043 c-35 -36 -45 -38 -45 -7 0 31 7 37 44 37 l30 0 -29
-30z m145 -2 l0 -32 -30 29 c-16 16 -30 30 -30 32 0 2 14 3 30 3 27 0 30 -3
30 -32z m-100 -28 l0 -50 -45 0 c-25 0 -45 3 -45 7 0 7 81 93 87 93 2 0 3 -22
3 -50z m62 13 c51 -49 49 -63 -7 -63 l-45 0 0 50 c0 28 3 50 7 50 4 0 24 -17
45 -37z m-62 -128 c0 -25 -3 -45 -7 -45 -10 0 -83 72 -83 82 0 4 20 8 45 8
l45 0 0 -45z m100 38 c0 -10 -72 -83 -82 -83 -4 0 -8 20 -8 45 l0 45 45 0 c25
0 45 -3 45 -7z m-148 -155 l-42 -43 0 85 0 85 42 -43 43 -42 -43 -42z m158 30
c0 -38 -4 -68 -8 -68 -4 0 -26 18 -47 40 l-39 40 39 40 c47 48 55 41 55 -52z
m-121 -104 c-14 -17 -79 -19 -79 -2 0 7 19 32 43 56 l42 43 3 -41 c2 -23 -2
-48 -9 -56z m121 -6 c0 -15 -68 -8 -84 8 -10 9 -16 33 -16 57 l0 41 50 -49
c28 -27 50 -53 50 -57z m-150 -27 c0 -5 -7 -14 -15 -21 -12 -10 -18 -10 -30 0
-8 7 -12 16 -9 21 7 12 54 12 54 0z m40 -31 c0 -32 -4 -40 -19 -40 -10 0 -24
7 -31 15 -11 13 -9 20 10 40 32 34 40 31 40 -15z m57 18 c21 -20 22 -23 6 -40
-25 -28 -40 -22 -45 17 -6 52 3 57 39 23z m53 14 c0 -19 -23 -32 -37 -21 -20
17 -15 29 12 29 14 0 25 -4 25 -8z m-3 -52 c-1 -13 -8 -20 -21 -20 -19 0 -19
0 0 19 24 25 23 25 21 1z m-177 -5 c10 -12 9 -15 -4 -15 -10 0 -15 4 -12 9 4
5 0 12 -6 14 -8 4 -9 6 -2 6 6 1 17 -6 24 -14z m45 -45 c14 -16 16 -23 7 -32
-9 -9 -18 -6 -37 12 -14 13 -25 27 -25 32 0 16 37 8 55 -12z m131 3 c7 -10 14
-43 14 -73 l0 -55 -32 32 -32 32 22 24 c32 34 27 45 -6 13 -26 -24 -30 -25
-42 -11 -11 13 -10 19 5 35 22 25 53 26 71 3z m-169 -32 l22 -28 -29 -28 -30
-29 0 57 c0 31 3 57 8 56 4 0 17 -13 29 -28z m63 -31 c0 -5 -2 -10 -4 -10 -3
0 -8 5 -11 10 -3 6 -1 10 4 10 6 0 11 -4 11 -10z m-10 -25 c11 -13 8 -21 -15
-45 -29 -30 -75 -41 -75 -18 0 13 59 78 71 78 3 0 12 -7 19 -15z m130 -67 c0
-19 -49 -5 -75 22 -24 25 -26 32 -15 45 12 14 17 12 52 -22 21 -20 38 -41 38
-45z m-120 12 c0 -14 -7 -20 -22 -20 -20 0 -21 1 -3 20 10 11 20 20 22 20 1 0
3 -9 3 -20z m45 0 c18 -19 17 -20 -3 -20 -15 0 -22 6 -22 20 0 11 2 20 3 20 2
0 12 -9 22 -20z m-107 -41 c22 14 62 1 62 -20 0 -15 -7 -19 -33 -19 -31 0 -73
31 -59 44 3 4 8 2 12 -3 3 -6 11 -6 18 -2z m162 1 c0 6 4 9 10 5 18 -11 -24
-45 -57 -45 -26 0 -33 4 -33 19 0 22 34 32 63 19 11 -6 17 -5 17 2z m-169 -67
c12 -15 12 -16 -1 -8 -13 8 -13 7 0 -11 8 -10 23 -29 34 -42 l20 -23 -42 -42
-42 -42 0 83 c0 51 4 82 11 82 5 0 7 5 4 10 -10 16 1 11 16 -7z m69 -15 l0
-32 -30 29 c-16 16 -30 30 -30 32 0 2 14 3 30 3 27 0 30 -3 30 -32z m70 29 c0
-2 -11 -14 -25 -27 l-25 -23 0 26 c0 22 5 27 25 27 14 0 25 -1 25 -3z m51 -28
c4 -13 7 -55 8 -94 l1 -69 -45 44 c-25 24 -45 47 -45 50 0 4 17 26 37 51 l37
44 -47 -45 c-56 -52 -63 -43 -10 12 41 42 54 44 64 7z m-151 -24 c13 -14 21
-25 18 -25 -2 0 -15 11 -28 25 -13 14 -21 25 -18 25 2 0 15 -11 28 -25z m-16
-112 l-48 -58 47 45 47 44 0 -47 0 -47 -39 0 c-76 0 -78 7 -20 66 29 30 55 54
57 54 3 0 -17 -26 -44 -57z m176 -53 c0 -4 -25 -8 -55 -9 l-55 -2 0 48 0 47
47 -44 c37 -34 41 -37 18 -10 -63 73 -67 83 -12 30 31 -30 57 -57 57 -60z
m-130 -87 l-1 -58 -44 50 c-25 28 -45 53 -45 58 0 4 20 7 45 7 l45 0 0 -57z
m110 50 c0 -5 -20 -30 -45 -58 l-44 -50 -1 58 0 57 45 0 c25 0 45 -3 45 -7z
m30 -144 c3 -54 3 -99 0 -99 -3 0 -30 25 -60 55 l-54 55 49 50 c27 27 51 47
54 44 3 -3 8 -50 11 -105z m-190 56 l43 -44 -48 -53 c-27 -29 -50 -55 -52 -57
-2 -2 -3 41 -3 97 0 56 4 102 8 102 4 0 28 -20 52 -45z m50 -125 l0 -50 -52 0
-52 0 49 50 c27 28 51 50 52 50 2 0 3 -22 3 -50z m109 -42 c1 -5 -19 -8 -44
-8 l-45 0 0 46 0 47 44 -39 c24 -22 45 -42 45 -46z m-252 -20 c-3 -8 -6 -5 -6
6 -1 11 2 17 5 13 3 -3 4 -12 1 -19z m143 -13 c0 -13 -12 -15 -62 -14 -35 1
-57 4 -50 6 6 3 10 9 6 14 -3 5 19 9 50 9 44 0 56 -3 56 -15z m120 0 c-8 -9
-30 -15 -56 -15 -32 0 -44 4 -44 15 0 12 13 15 56 15 49 0 55 -2 44 -15z
m-164 -77 c28 -30 41 -53 42 -73 1 -25 -1 -27 -8 -10 -5 11 -9 16 -9 10 -1
-14 -101 87 -101 102 0 26 37 12 76 -29z m44 10 l0 -32 -30 29 c-16 16 -30 30
-30 32 0 2 14 3 30 3 27 0 30 -3 30 -32z m59 5 c-13 -16 -27 -32 -31 -37 -5
-6 -8 7 -8 27 0 35 2 37 32 37 l31 0 -24 -27z m91 20 c0 -12 -94 -103 -106
-103 -7 0 -14 -6 -17 -12 -3 -7 -5 -2 -4 12 1 33 73 110 104 110 13 0 23 -3
23 -7z m-299 -115 c-9 -32 -9 -31 -10 19 -1 28 2 60 7 70 11 29 15 -49 3 -89z
m307 -6 c-2 -19 -10 -26 -31 -29 -15 -2 -35 1 -45 6 -13 7 -22 7 -29 0 -8 -8
-13 -7 -17 0 -4 6 -3 11 3 11 6 0 32 23 58 51 l48 51 8 -32 c4 -18 7 -44 5
-58z m-178 -26 c0 -6 -5 -5 -11 1 -8 8 -18 8 -35 1 -40 -18 -54 -4 -54 54 l0
53 50 -50 c27 -27 49 -54 50 -59z m-7 -138 l-32 -32 -26 24 c-14 13 -25 27
-25 32 0 4 26 8 57 8 l58 0 -32 -32z m143 3 l-29 -30 -28 22 c-16 11 -29 24
-29 29 0 4 26 8 57 8 l57 0 -28 -29z m54 17 c-1 -17 -46 -68 -60 -68 -17 0
-12 17 16 49 27 32 44 40 44 19z m-250 -62 c-13 -13 -50 21 -50 47 0 19 3 18
30 -8 20 -19 27 -32 20 -39z m-81 1 c-1 -55 -11 -89 -28 -95 -9 -3 -11 2 -8
14 3 11 8 45 12 77 7 65 26 68 24 4z m161 -4 l0 -46 -25 23 -25 24 22 23 c12
13 23 23 25 23 2 0 3 -21 3 -47z m66 16 c3 -6 -5 -23 -20 -37 l-26 -27 0 48
c0 44 1 47 19 37 11 -5 23 -15 27 -21z m114 -18 c0 -16 3 -36 6 -45 8 -21 -6
-20 -35 4 -22 19 -23 21 -7 45 22 33 36 32 36 -4z m-291 -4 c8 -11 6 -18 -9
-32 -20 -18 -20 -17 -20 13 0 34 10 41 29 19z m80 -21 c15 -16 21 -33 19 -51
l-3 -27 -33 41 c-18 23 -30 46 -27 51 9 15 20 12 44 -14z m128 8 c2 -6 -12
-28 -31 -50 -32 -36 -35 -37 -36 -16 0 13 10 37 23 52 22 28 38 33 44 14z
m-133 -95 c-3 -5 -16 -9 -30 -9 -15 0 -23 4 -19 10 4 6 16 8 28 4 18 -5 20 -4
10 7 -10 10 -18 10 -38 1 -63 -29 -86 -2 -37 43 l27 26 32 -37 c18 -20 30 -41
27 -45z m204 37 c35 -31 27 -39 -32 -33 -33 3 -58 1 -65 -6 -6 -6 -13 -8 -17
-4 -3 3 9 24 27 46 35 44 33 44 87 -3z m22 -56 c0 -5 -2 -10 -4 -10 -3 0 -8 5
-11 10 -3 6 -1 10 4 10 6 0 11 -4 11 -10z m-241 -6 l31 -6 -37 -29 c-19 -16
-39 -29 -43 -29 -14 0 -52 49 -45 59 7 12 47 14 94 5z m218 -10 c3 -8 -4 -25
-17 -39 l-23 -24 -40 32 c-40 31 -40 32 -16 38 45 13 89 10 96 -7z m-353 -75
c-5 -35 -15 -64 -22 -67 -9 -3 -11 7 -7 40 14 103 16 111 27 100 8 -8 8 -31 2
-73z m166 47 c0 -17 -58 -61 -67 -52 -4 4 9 20 28 36 40 34 39 34 39 16z m130
-47 c0 -16 -16 -9 -43 19 -38 39 -34 48 8 16 19 -14 35 -30 35 -35z m92 -1 c4
-43 0 -46 -33 -19 l-24 19 25 27 c27 28 27 28 32 -27z m-345 -15 c-16 -16 -17
-15 -17 17 0 32 1 33 17 17 16 -16 16 -18 0 -34z m118 -30 l-6 -24 -19 23
c-18 23 -18 23 3 46 l22 24 3 -22 c2 -12 1 -33 -3 -47z m100 47 c16 -18 17
-23 5 -45 -17 -31 -30 -32 -30 -2 0 12 -3 32 -6 45 -8 27 7 29 31 2z m-175
-29 c0 -15 -65 -62 -69 -50 -2 6 7 21 20 35 23 24 49 32 49 15z m279 -19 c19
-15 32 -34 30 -40 -4 -13 -79 42 -79 59 0 16 14 10 49 -19z m-4 -41 c5 -10
-42 -21 -87 -21 l-29 0 28 34 27 35 28 -20 c15 -11 30 -24 33 -28z m-235 9
l21 -30 -24 0 c-14 0 -39 3 -56 6 l-32 7 22 23 c29 31 43 30 69 -6z m-12 -46
l31 -6 -29 -24 c-35 -30 -44 -30 -65 2 -9 14 -19 23 -23 20 -3 -3 5 -17 17
-30 13 -14 20 -30 16 -36 -8 -13 -54 35 -55 57 0 21 49 29 108 17z m236 -26
c-15 -18 -29 -32 -31 -32 -3 1 -19 12 -36 25 l-32 23 25 7 c14 4 42 7 63 8
l39 1 -28 -32z m20 -25 c-15 -20 -30 -31 -32 -25 -2 6 9 28 24 48 16 20 30 31
32 25 2 -6 -9 -28 -24 -48z m-391 35 c9 -26 -6 -128 -21 -140 -14 -12 -15 -7
-9 36 4 27 7 64 7 82 0 33 13 46 23 22z m146 -35 c-12 -15 -12 -16 4 -10 14 5
17 0 17 -35 0 -36 -2 -39 -16 -27 -27 22 -34 52 -16 72 19 22 29 22 11 0z
m171 -32 c0 -4 -8 -17 -17 -30 -16 -23 -17 -23 -24 -5 -4 10 -8 31 -8 47 -1
27 -1 27 24 11 14 -9 25 -19 25 -23z m110 -8 l0 -46 -25 23 c-23 22 -23 23 -7
46 25 34 32 29 32 -23z m-370 -5 c0 -4 -10 -12 -21 -19 -20 -10 -21 -9 -16 12
4 13 7 31 7 39 1 11 4 10 15 -4 8 -11 15 -23 15 -28z m397 0 c-3 -7 -5 -2 -5
12 0 14 2 19 5 13 2 -7 2 -19 0 -25z m-227 -101 c-15 -16 -21 12 -13 65 l7 53
7 -55 c4 -30 4 -59 -1 -63z m-91 74 c12 -16 21 -37 21 -47 0 -14 -7 -10 -30
16 -29 35 -38 60 -21 60 5 0 19 -13 30 -29z m179 -23 c-18 -23 -34 -36 -36
-30 -5 15 48 83 59 76 5 -3 -5 -24 -23 -46z m93 -19 c-8 -9 -91 -16 -91 -8 0
3 9 18 21 33 l21 26 28 -22 c15 -13 25 -26 21 -29z m-301 16 l23 -25 -45 0
c-55 0 -66 9 -36 32 30 23 30 23 58 -7z m357 3 c-3 -8 -6 -5 -6 6 -1 11 2 17
5 13 3 -3 4 -12 1 -19z m-408 -98 c22 -31 21 -50 -3 -50 -16 0 -46 43 -46 65
0 25 25 17 49 -15z m81 14 c0 -2 -11 -11 -25 -20 -24 -16 -27 -16 -40 2 -21
28 -19 30 25 26 22 -2 40 -6 40 -8z m250 8 c0 -5 -9 -17 -19 -26 -16 -15 -22
-15 -40 -4 -29 18 -26 26 12 31 17 2 35 5 40 5 4 1 7 -2 7 -6z m50 -4 c0 -7
-11 -26 -24 -43 -19 -23 -27 -27 -36 -18 -10 9 -8 18 9 42 23 31 51 42 51 19z
m-459 -10 c4 -52 -5 -115 -17 -128 -12 -12 -14 -10 -14 16 0 53 12 124 21 124
5 0 9 -6 10 -12z m256 -22 c-4 -9 -11 -16 -17 -16 -11 0 -14 33 -3 44 11 10
26 -11 20 -28z m251 -91 c0 -29 0 -29 -8 -5 -4 14 -8 50 -8 80 l1 55 7 -50 c5
-27 8 -63 8 -80z m-338 58 c0 -45 0 -46 -20 -28 -11 10 -20 23 -20 28 0 10 29
47 37 47 1 0 3 -21 3 -47z m185 17 c4 -6 -1 -23 -10 -37 -21 -31 -35 -17 -35
35 0 29 2 32 19 22 11 -5 23 -15 26 -20z m115 -32 l0 -42 -21 20 c-18 19 -19
24 -8 43 21 32 29 26 29 -21z m-422 -15 c-16 -20 -28 -15 -28 10 0 32 11 40
26 19 9 -12 9 -21 2 -29z m222 15 c0 -16 -3 -19 -11 -11 -6 6 -8 16 -5 22 11
17 16 13 16 -11z m-131 -17 c25 -34 27 -51 7 -51 -18 0 -59 56 -51 70 10 17
23 11 44 -19z m254 5 c-21 -38 -73 -73 -73 -49 0 18 52 72 65 67 8 -4 12 -11
8 -18z m-293 -37 c0 -5 -13 -9 -30 -9 -33 0 -39 14 -13 29 18 10 43 -2 43 -20z
m156 14 c17 -23 18 -43 2 -43 -26 0 -40 17 -33 39 8 26 14 26 31 4z m177 3
c25 -20 21 -26 -18 -26 -33 0 -34 1 -23 20 15 23 17 24 41 6z m-304 -62 c2 -2
-16 -4 -42 -4 -25 0 -49 5 -52 11 -5 7 8 8 41 3 27 -3 51 -8 53 -10z m316 6
c-3 -5 -27 -9 -53 -9 -46 2 -46 2 -12 9 53 11 72 11 65 0z m-182 -17 c-7 -2
-21 -2 -30 0 -10 3 -4 5 12 5 17 0 24 -2 18 -5z m-203 -35 c24 -26 25 -32 5
-48 -13 -10 -19 -10 -35 5 -23 21 -27 65 -5 65 8 0 23 -10 35 -22z m420 5 c-1
-10 -10 -29 -21 -42 -18 -22 -21 -23 -36 -8 -15 14 -15 18 1 41 19 30 56 35
56 9z m-503 -70 c-3 -43 -11 -71 -22 -82 -16 -15 -17 -12 -11 44 10 91 17 116
28 109 6 -4 9 -32 5 -71z m143 62 c-7 -8 -18 -15 -25 -15 -7 0 -15 7 -19 15
-4 11 2 15 26 15 26 0 29 -2 18 -15z m289 0 c-9 -9 -23 -13 -32 -9 -28 10 -19
24 15 24 29 0 31 -2 17 -15z m124 -87 c4 -32 3 -58 -2 -58 -11 0 -21 61 -20
120 1 36 2 40 8 20 4 -14 11 -51 14 -82z m-300 78 c3 -8 -1 -22 -8 -33 -13
-17 -14 -16 -15 15 0 33 13 43 23 18z m47 -12 c0 -20 -4 -25 -16 -20 -12 4
-14 1 -9 -14 7 -22 -2 -60 -15 -60 -18 0 -17 43 3 80 25 46 37 51 37 14z
m-130 -31 c-5 -27 -6 -51 -3 -55 9 -17 -55 -7 -71 10 -15 18 -15 20 4 37 19
17 20 17 41 -6 l21 -24 -15 26 c-14 24 -14 28 1 43 25 25 29 20 22 -31z m244
3 c24 -20 27 -26 17 -45 -8 -14 -21 -21 -41 -21 -35 0 -38 10 -10 35 11 10 20
23 20 29 -1 6 -9 1 -19 -11 -26 -32 -31 -29 -31 17 0 45 6 45 64 -4z m96 -16
c0 -28 -2 -30 -20 -20 -16 9 -18 15 -10 30 16 29 30 24 30 -10z m-464 9 c3 -6
-1 -18 -10 -27 -15 -15 -16 -14 -16 11 0 27 13 36 26 16z m34 -49 c0 -5 -7 -7
-15 -4 -8 4 -15 8 -15 10 0 2 7 4 15 4 8 0 15 -4 15 -10z m230 -11 c0 -5 -7
-9 -15 -9 -15 0 -20 12 -9 23 8 8 24 -1 24 -14z m155 11 c-3 -5 -10 -10 -16
-10 -5 0 -9 5 -9 10 0 6 7 10 16 10 8 0 12 -4 9 -10z m-225 -10 c0 -5 -4 -10
-10 -10 -5 0 -10 5 -10 10 0 6 5 10 10 10 6 0 10 -4 10 -10z m-205 -40 c18
-19 17 -20 -3 -20 -15 0 -22 6 -22 20 0 11 2 20 3 20 2 0 12 -9 22 -20z m87 3
c26 -24 22 -33 -15 -33 -23 0 -41 8 -57 25 l-23 25 38 0 c22 0 46 -7 57 -17z
m368 10 c0 -19 -37 -43 -67 -43 -36 0 -41 10 -17 34 15 15 84 23 84 9z m30
-13 c0 -14 -7 -20 -22 -20 -20 0 -21 1 -3 20 10 11 20 20 22 20 1 0 3 -9 3
-20z m-360 0 c0 -5 -2 -10 -4 -10 -3 0 -8 5 -11 10 -3 6 -1 10 4 10 6 0 11 -4
11 -10z m90 6 c0 -15 -14 -35 -21 -30 -15 9 -10 34 6 34 8 0 15 -2 15 -4z m52
-28 c-3 -13 -1 -19 5 -15 7 4 12 -8 15 -33 4 -48 -8 -53 -18 -8 -3 18 -13 42
-20 54 -15 22 -10 36 11 28 7 -3 11 -14 7 -26z m88 28 c0 -11 -19 -15 -25 -6
-3 5 1 10 9 10 9 0 16 -2 16 -4z m-110 -71 c0 -11 -4 -27 -10 -35 -15 -24 -33
35 -19 62 9 17 13 18 20 7 5 -8 9 -23 9 -34z m-56 -9 c-11 -27 -21 -17 -16 15
4 24 7 28 13 16 5 -8 6 -22 3 -31z m-147 19 c6 -18 -23 -55 -43 -55 -17 0 -37
37 -30 56 7 19 65 18 73 -1z m377 4 c4 6 20 11 37 11 24 0 29 -4 29 -24 0 -13
-7 -29 -15 -36 -13 -11 -21 -8 -46 16 -25 24 -31 26 -39 14 -8 -13 -12 -12
-27 4 -17 18 -17 18 4 13 13 -3 26 -1 29 5 4 7 9 6 14 -2 5 -9 9 -9 14 -1z
m-479 -68 c-10 -76 -14 -89 -31 -95 -15 -6 -16 0 -10 46 14 108 17 120 33 107
10 -9 12 -25 8 -58z m165 59 c0 -5 -4 -10 -8 -10 -5 0 -24 -13 -42 -30 -18
-16 -38 -30 -44 -30 -12 1 74 79 87 80 4 0 7 -4 7 -10z m445 -108 c6 -49 5
-54 -8 -44 -17 14 -33 134 -21 154 9 14 18 -18 29 -110z m-191 55 c-10 -28
-24 -19 -24 15 0 29 2 31 15 17 9 -9 13 -23 9 -32z m-244 13 c0 -11 -4 -20 -9
-20 -11 0 -22 26 -14 34 12 12 23 5 23 -14z m330 -22 c0 -5 -3 -8 -7 -8 -10 0
-43 32 -43 42 0 11 49 -24 50 -34z m-228 -10 c0 -35 -30 -100 -44 -96 -16 6
-12 57 9 105 16 39 36 34 35 -9z m61 -7 c20 -58 22 -91 4 -91 -17 0 -48 89
-41 118 9 33 17 27 37 -27z m217 17 c0 -16 -3 -19 -11 -11 -6 6 -8 16 -5 22
11 17 16 13 16 -11z m-515 -9 c-4 -5 -1 -9 5 -9 6 0 8 -4 5 -10 -8 -14 -34 11
-28 27 3 7 9 10 14 7 5 -3 7 -10 4 -15z m121 -4 c21 -32 13 -42 -30 -37 -46 5
-55 20 -26 44 29 24 36 23 56 -7z m308 6 c23 -25 15 -38 -29 -43 -40 -5 -47
12 -18 44 20 23 26 23 47 -1z m71 -21 c3 -5 2 -10 -4 -10 -5 0 -13 5 -16 10
-3 6 -2 10 4 10 5 0 13 -4 16 -10z m-231 -57 c6 -20 4 -23 -18 -23 -29 0 -31
6 -15 47 11 30 19 24 33 -24z m-207 10 l25 -28 -28 -3 c-20 -3 -34 3 -46 18
-36 44 8 56 49 13z m438 18 c3 -5 1 -12 -5 -16 -5 -3 -10 -11 -10 -18 0 -8 3
-8 12 1 16 16 28 15 28 -2 0 -10 -15 -14 -55 -15 -61 0 -67 8 -29 38 29 23 49
27 59 12z m-380 -11 c4 -6 4 -18 1 -27 -6 -14 -9 -14 -26 2 -11 10 -20 22 -20
27 0 12 38 10 45 -2z m287 -12 c-17 -18 -24 -20 -34 -10 -10 10 -10 15 2 22 8
5 24 10 35 10 19 0 19 -1 -3 -22z m-405 -24 c-12 -12 -37 5 -30 21 5 15 7 15
21 1 9 -9 13 -18 9 -22z m-137 -404 c0 -11 -3 -20 -8 -20 -4 0 -13 9 -20 20
-11 18 -10 20 8 20 13 0 20 -7 20 -20z m223 -51 c-13 -50 -21 -21 -9 31 7 31
11 38 13 24 2 -12 0 -37 -4 -55z m354 -289 c34 -195 63 -361 63 -367 0 -10
-57 -13 -253 -13 -140 0 -256 2 -259 5 -5 6 125 705 134 721 4 6 53 10 130 10
l122 -1 63 -355z m33 350 c0 -5 -5 -10 -11 -10 -5 0 -7 5 -4 10 3 6 8 10 11
10 2 0 4 -4 4 -10z m179 -11 c-9 -17 -13 -19 -19 -8 -11 16 -4 29 16 29 12 0
13 -4 3 -21z m-736 5 c4 -4 3 -12 -1 -18 -3 -6 -7 -17 -7 -25 0 -8 -7 -17 -15
-19 -13 -4 -13 -3 -2 10 10 13 10 17 1 20 -7 2 -10 11 -6 21 7 18 19 22 30 11z
m690 -15 c4 -15 2 -19 -10 -15 -8 3 -17 6 -19 6 -2 0 -4 7 -4 15 0 23 27 18
33 -6z m-769 -20 c6 -17 3 -43 -8 -80 -12 -42 -23 -59 -51 -77 -19 -12 -35
-19 -35 -15 0 25 66 203 75 200 5 -2 14 -15 19 -28z m140 22 c4 -5 2 -21 -4
-36 -13 -34 -46 -31 -42 5 3 32 33 52 46 31z m574 -3 c7 -7 12 -22 12 -35 0
-33 -36 -31 -44 2 -10 40 7 58 32 33z m160 -85 c17 -53 29 -99 27 -102 -3 -2
-17 4 -32 15 -37 28 -68 119 -52 156 6 16 14 28 18 28 4 0 21 -44 39 -97z
m-693 78 c3 -6 -4 -15 -15 -21 -22 -12 -23 -10 -14 14 7 18 20 21 29 7z m488
-12 c4 -15 2 -19 -10 -15 -8 3 -17 6 -19 6 -2 0 -4 7 -4 15 0 23 27 18 33 -6z
m98 -15 c12 -14 11 -16 -5 -13 -11 2 -21 10 -24 17 -5 17 13 15 29 -4z m-565
-10 c-3 -9 -6 -19 -6 -23 0 -5 -12 -6 -27 -3 l-26 5 22 18 c28 23 45 24 37 3z
m458 -13 c6 -10 -30 -22 -38 -13 -3 3 -6 14 -6 24 0 15 3 17 19 8 11 -5 22
-14 25 -19z m-594 -11 c0 -5 -2 -10 -4 -10 -3 0 -8 5 -11 10 -3 6 -1 10 4 10
6 0 11 -4 11 -10z m700 0 c0 -5 -4 -10 -10 -10 -5 0 -10 5 -10 10 0 6 5 10 10
10 6 0 10 -4 10 -10z m-730 -46 c-21 -24 -30 -16 -18 17 9 27 12 29 20 15 6
-11 6 -22 -2 -32z m86 20 c-3 -9 -6 -24 -6 -35 0 -25 -16 -24 -30 2 -9 17 -8
23 7 35 24 18 36 18 29 -2z m66 10 c12 -12 -5 -41 -33 -58 -17 -10 -28 -20
-26 -23 3 -2 17 3 31 12 l26 17 -7 -33 c-3 -19 -10 -45 -13 -59 -7 -24 -9 -23
-28 20 -18 39 -19 52 -10 88 8 33 15 42 33 42 12 0 24 -3 27 -6z m505 -34 c12
-47 2 -51 -41 -17 -34 27 -30 57 7 57 18 0 25 -8 34 -40z m43 7 c0 -15 -18
-43 -23 -37 -3 3 -8 20 -12 38 -7 32 -6 33 14 23 12 -7 21 -17 21 -24z m64 17
c11 -28 7 -35 -14 -24 -11 6 -17 16 -14 25 8 20 20 19 28 -1z m-583 -117 c-17
-89 -31 -133 -31 -95 0 22 31 181 37 191 13 21 11 -7 -6 -96z m-183 17 c-9
-28 -19 -40 -36 -42 -12 -2 -22 2 -22 8 0 23 29 78 47 88 24 14 28 -2 11 -54z
m764 52 c18 -13 38 -57 38 -82 0 -26 -43 -12 -50 16 -23 88 -22 92 12 66z
m-712 -17 c9 -17 8 -23 -7 -35 -27 -20 -34 -17 -27 14 12 48 18 52 34 21z
m595 -49 c-22 -43 -32 -44 -39 -2 -12 73 -10 76 24 52 29 -21 29 -22 15 -50z
m83 13 c-3 -12 -6 -12 -22 0 -16 12 -17 17 -6 37 l13 24 9 -24 c5 -13 7 -30 6
-37z m-805 -11 c-3 -12 -13 -22 -22 -22 -31 0 -32 13 -4 31 32 21 34 20 26 -9z
m931 3 c18 -14 18 -15 2 -21 -11 -4 -22 -1 -27 7 -19 31 -6 38 25 14z m-799
-24 c-4 -15 -15 -21 -33 -21 l-27 1 29 25 c31 28 41 26 31 -5z m685 -11 c0 -4
-9 -10 -19 -13 -20 -5 -31 10 -31 39 0 12 4 12 25 -2 14 -9 25 -20 25 -24z
m-630 -23 c0 -7 -38 0 -48 8 -2 2 -1 14 3 26 l7 22 19 -24 c10 -13 19 -28 19
-32z m467 21 c-3 -7 -5 -2 -5 12 0 14 2 19 5 13 2 -7 2 -19 0 -25z m103 23 c0
-5 3 -16 6 -24 3 -9 -3 -16 -17 -20 -30 -8 -32 -5 -18 27 12 25 29 35 29 17z
m-777 -28 c3 -5 1 -17 -3 -28 -7 -19 -7 -19 -18 2 -7 12 -12 24 -12 27 0 9 28
7 33 -1z m967 -13 c-6 -11 -15 -20 -20 -20 -6 0 -10 9 -10 20 0 13 7 20 20 20
18 0 19 -3 10 -20z m-920 6 c0 -3 -4 -8 -10 -11 -5 -3 -10 -1 -10 4 0 6 5 11
10 11 6 0 10 -2 10 -4z m-76 -32 c16 -24 16 -29 -9 -104 -21 -63 -33 -83 -58
-99 -17 -11 -33 -18 -35 -16 -4 3 65 219 75 238 6 11 9 9 27 -19z m106 12 c0
-19 -14 -28 -34 -20 -15 6 -15 8 1 20 23 17 33 17 33 0z m60 -17 c0 -12 -7
-19 -19 -19 -23 0 -35 15 -27 35 7 20 46 7 46 -16z m547 -6 c-3 -10 -5 -4 -5
12 0 17 2 24 5 18 2 -7 2 -21 0 -30z m166 18 c6 -23 0 -31 -24 -31 -9 0 -19 9
-22 19 -4 18 2 24 34 30 4 0 9 -8 12 -18z m50 5 c16 -12 16 -14 1 -20 -25 -10
-31 -7 -37 14 -6 23 10 26 36 6z m130 -107 c21 -67 37 -122 35 -124 -2 -2 -17
7 -34 20 -42 33 -84 163 -64 200 7 14 16 25 19 25 3 0 23 -55 44 -121z m-233
80 c0 -22 -17 -24 -42 -5 -24 18 -23 24 5 28 29 5 37 1 37 -23z m-609 1 c-30
-25 -41 -25 -41 0 0 16 7 20 33 20 l32 -1 -24 -19z m-125 -27 c-3 -8 -6 -17
-6 -20 0 -3 -7 0 -15 7 -22 19 -19 39 6 33 12 -4 18 -11 15 -20z m843 -6 c-13
-29 -29 -27 -29 3 0 10 8 20 18 22 24 6 24 4 11 -25z m-779 3 c0 -13 -54 -53
-58 -42 -1 5 2 21 7 35 7 19 15 24 30 20 12 -3 21 -9 21 -13z m90 16 c0 -3 -4
-8 -10 -11 -5 -3 -10 -1 -10 4 0 6 5 11 10 11 6 0 10 -2 10 -4z m530 -6 c0 -5
-4 -10 -10 -10 -5 0 -10 5 -10 10 0 6 5 10 10 10 6 0 10 -4 10 -10z m118 -33
c3 -28 3 -28 -22 -12 -33 22 -35 48 -3 43 16 -2 23 -11 25 -31z m-669 14 c20
-13 5 -43 -34 -68 -19 -13 -37 -23 -41 -23 -13 0 9 66 28 83 23 19 28 20 47 8z
m585 -3 c23 -10 54 -74 42 -86 -7 -7 -84 49 -91 66 -3 8 0 19 7 24 16 10 13
10 42 -4z m173 -51 c7 -23 10 -43 8 -45 -2 -2 -18 6 -35 18 -30 21 -30 22 -13
50 20 34 24 32 40 -23z m-931 26 c7 -10 14 -23 14 -28 0 -10 -50 -45 -63 -45
-3 0 1 20 10 45 17 50 20 53 39 28z m87 -35 c-6 -32 -18 -36 -27 -11 -5 11 -1
22 10 30 22 16 23 14 17 -19z m118 -82 c-12 -59 -21 -109 -21 -112 0 -3 -4 -3
-8 0 -5 3 -1 49 10 103 20 108 26 128 34 121 3 -3 -4 -54 -15 -112z m514 -115
c-7 -6 -12 15 -29 114 -24 134 -17 137 9 5 13 -63 22 -117 20 -119z m125 198
c0 -4 -7 -12 -15 -19 -8 -7 -15 -9 -15 -4 0 5 -3 20 -7 32 -5 22 -4 23 16 11
11 -8 21 -17 21 -20z m-684 -69 c-7 -36 -16 -64 -20 -63 -10 2 -46 59 -46 73
0 8 71 62 76 57 1 -1 -4 -31 -10 -67z m607 45 c20 -14 37 -29 37 -32 0 -11
-52 -95 -56 -90 -8 8 -32 147 -25 147 3 0 23 -11 44 -25z m-763 -43 c-7 -30
-20 -47 -46 -62 -19 -12 -37 -20 -40 -18 -12 13 25 80 56 102 19 13 36 23 38
21 2 -2 -2 -21 -8 -43z m946 -3 c7 -8 17 -31 21 -49 l6 -34 -34 21 c-33 21
-50 44 -64 92 l-7 23 32 -18 c17 -11 38 -26 46 -35z m-902 25 c4 -10 -1 -22
-11 -29 -22 -16 -22 -16 -16 18 6 30 18 35 27 11z m823 -31 c-4 -3 -13 0 -22
7 -12 10 -13 16 -3 27 11 13 14 12 22 -6 5 -12 6 -24 3 -28z m18 -50 c7 -30
-1 -43 -24 -43 -14 0 -21 10 -25 36 -4 19 -10 43 -13 51 -5 14 -2 13 25 -2 17
-10 33 -29 37 -42z m-830 10 c-8 -45 -17 -56 -41 -51 -25 5 -20 47 8 71 32 27
41 21 33 -20z m-162 -3 c-3 -11 -14 -20 -24 -20 -24 0 -25 16 -1 29 25 15 31
13 25 -9z m217 -34 l23 -38 -34 7 c-45 9 -48 14 -37 54 10 37 13 35 48 -23z
m716 19 c3 -20 5 -37 3 -39 -2 -2 -21 -6 -42 -10 l-37 -7 27 46 c15 25 31 45
35 45 4 0 10 -16 14 -35z m197 21 c23 -18 21 -28 -5 -24 -13 2 -24 11 -26 21
-4 20 6 21 31 3z m-83 -39 c0 -16 -35 -1 -38 16 -3 16 -1 17 17 5 12 -7 21
-17 21 -21z m-960 8 c0 -8 -7 -15 -15 -15 -26 0 -18 20 13 29 1 1 2 -6 2 -14z
m-104 -16 c3 -6 2 -15 -4 -21 -7 -7 -14 -3 -21 11 -10 17 -9 21 3 21 8 0 18
-5 22 -11z m1164 2 c0 -5 -7 -14 -15 -21 -13 -10 -15 -9 -15 9 0 12 6 21 15
21 8 0 15 -4 15 -9z m-1184 -71 c-11 -61 -24 -80 -56 -80 -16 0 -30 2 -30 3 0
4 34 105 46 137 9 25 45 -30 40 -60z m1113 56 c-11 -9 -59 -15 -59 -7 0 5 12
11 28 13 27 3 39 1 31 -6z m116 -56 c10 -30 20 -61 23 -67 3 -9 -6 -13 -27
-13 -28 0 -32 4 -44 48 -13 42 -13 50 1 74 19 33 24 29 47 -42z m-1115 51 c0
-4 -11 -6 -25 -3 -14 2 -25 6 -25 8 0 2 11 4 25 4 14 0 25 -4 25 -9z m65 -11
c8 -13 -15 -13 -35 0 -12 8 -11 10 7 10 12 0 25 -4 28 -10z m855 0 c-20 -13
-43 -13 -35 0 3 6 16 10 28 10 18 0 19 -2 7 -10z m-937 -6 c9 -3 12 -14 9 -30
-6 -31 -16 -31 -31 2 -6 15 -14 24 -17 22 -3 -3 5 -22 17 -42 15 -25 18 -41
12 -47 -12 -12 -53 47 -53 74 0 22 32 33 63 21z m147 -4 c24 -8 24 -8 -7 -9
-17 -1 -35 4 -38 9 -7 11 9 11 45 0z m736 1 c-8 -12 -55 -20 -61 -10 -3 4 5
10 17 12 40 8 49 7 44 -2z m134 1 c0 -4 -7 -18 -16 -30 -9 -13 -14 -26 -11
-29 3 -2 13 10 22 27 11 22 20 29 27 22 7 -7 2 -23 -14 -51 -12 -22 -25 -41
-28 -41 -9 0 -31 91 -25 101 7 11 45 12 45 1z m-942 -17 c8 -7 -12 -56 -30
-71 -27 -25 -38 -4 -25 47 8 34 13 39 31 33 11 -4 22 -8 24 -9z m887 -31 c3
-20 2 -41 -2 -45 -14 -14 -42 13 -49 48 -5 25 -3 32 12 35 27 6 31 2 39 -38z
m-845 6 c-32 -25 -39 -25 -33 0 4 14 14 20 32 20 l26 0 -25 -20z m783 0 c7
-25 -4 -25 -34 0 l-24 19 26 1 c18 0 28 -6 32 -20z m-733 -9 c0 -11 -4 -22
-10 -26 -5 -3 -7 -12 -3 -20 3 -8 0 -15 -7 -15 -6 0 -8 5 -5 10 3 6 2 10 -4
10 -5 0 -13 -4 -16 -10 -8 -13 -55 -13 -55 -1 0 10 79 70 93 71 4 0 7 -9 7
-19z m700 -12 c48 -30 57 -49 23 -49 -26 0 -83 43 -83 63 0 22 1 22 60 -14z
m-922 -14 c16 -35 16 -35 -14 -35 -20 0 -25 4 -20 16 3 9 6 22 6 30 0 22 16
16 28 -11z m1122 -17 c0 -13 -8 -18 -25 -18 -30 0 -30 3 -8 36 12 19 18 22 24
12 5 -7 9 -21 9 -30z m-858 7 c-2 -14 -9 -25 -14 -25 -6 0 -7 7 -4 16 3 9 6
20 6 25 0 5 4 9 9 9 4 0 6 -11 3 -25z m577 -18 c1 -5 -3 -5 -9 -2 -5 3 -10 16
-9 28 0 21 1 21 9 2 5 -11 9 -24 9 -28z m51 3 c0 -5 -4 -10 -10 -10 -5 0 -10
5 -10 10 0 6 5 10 10 10 6 0 10 -4 10 -10z m-1161 -447 c-12 -21 -23 -39 -25
-41 -1 -2 -4 15 -6 37 -3 39 -2 41 25 41 l29 0 -23 -37z m57 -49 c-6 -16 -56
-19 -56 -4 0 6 12 29 28 53 l27 42 3 -39 c2 -21 1 -44 -2 -52z m21 19 c-2 -16
-4 -5 -4 22 0 28 2 40 4 28 2 -13 2 -35 0 -50z m88 17 c0 -45 0 -45 -37 -48
l-38 -3 0 51 0 51 38 -3 c37 -3 37 -3 37 -48z m35 0 c0 -27 -4 -50 -10 -50 -5
0 -10 23 -10 50 0 28 5 50 10 50 6 0 10 -22 10 -50z m53 44 c6 -7 -23 -74 -32
-74 -5 0 -6 63 -2 78 2 5 28 2 34 -4z m1167 -26 l-1 -33 -14 25 c-18 32 -18
40 0 40 10 0 15 -10 15 -32z m40 -18 c0 -27 -4 -50 -10 -50 -5 0 -10 23 -10
50 0 28 5 50 10 50 6 0 10 -22 10 -50z m88 3 c-3 -48 -3 -48 -38 -48 -32 0
-35 2 -38 33 -5 51 3 62 43 62 l36 0 -3 -47z m19 -30 c-2 -16 -4 -3 -4 27 0
30 2 43 4 28 2 -16 2 -40 0 -55z m103 37 c0 -22 -2 -40 -4 -40 -2 0 -15 18
-30 40 l-26 40 30 0 c28 0 30 -2 30 -40z m-1720 -20 c0 -49 -1 -50 -30 -50
-16 0 -30 2 -30 5 0 5 54 95 57 95 2 0 3 -22 3 -50z m370 43 c-1 -5 -7 -19
-15 -33 l-14 -25 -1 26 c0 14 3 29 7 32 9 9 23 9 23 0z m88 -5 c-3 -7 -13 -13
-23 -13 -10 0 -20 6 -22 13 -3 7 5 12 22 12 17 0 25 -5 23 -12z m47 2 c-3 -5
-11 -10 -16 -10 -6 0 -7 5 -4 10 3 6 11 10 16 10 6 0 7 -4 4 -10z m50 -49
c-13 -14 -17 -13 -37 6 -18 19 -19 24 -8 38 12 14 15 13 37 -7 21 -20 22 -23
8 -37z m30 48 c12 -19 -5 -23 -22 -6 -16 16 -16 17 -1 17 9 0 20 -5 23 -11z
m107 -6 c22 -20 23 -36 2 -53 -13 -11 -19 -9 -41 13 -22 22 -24 28 -13 41 16
20 29 20 52 -1z m29 0 c13 -16 12 -17 -3 -4 -10 7 -18 15 -18 17 0 8 8 3 21
-13z m39 13 c0 -11 -19 -15 -25 -6 -3 5 1 10 9 10 9 0 16 -2 16 -4z m75 -16
c37 -41 -10 -77 -53 -39 -25 22 -26 23 -8 2 11 -13 14 -23 9 -23 -6 0 -16 7
-23 15 -10 12 -9 20 4 40 20 30 46 32 71 5z m55 10 c0 -5 -4 -10 -9 -10 -6 0
-13 5 -16 10 -3 6 1 10 9 10 9 0 16 -4 16 -10z m90 -5 c9 -11 8 -19 -7 -39
-22 -31 -34 -32 -58 -6 -17 19 -17 21 0 40 21 24 48 26 65 5z m40 4 c0 -8 6
-7 17 2 14 12 16 12 12 0 -7 -21 -22 -23 -44 -6 -18 13 -18 14 -2 15 9 0 17
-5 17 -11z m90 -4 c11 -13 9 -20 -10 -40 -22 -23 -25 -24 -42 -8 -18 16 -18
17 4 40 25 27 31 28 48 8z m77 -2 c-9 -9 -19 -14 -23 -11 -10 10 6 28 24 28
15 0 15 -1 -1 -17z m48 -33 c-10 -11 -22 -20 -27 -20 -18 0 -20 32 -2 51 16
17 19 18 33 5 13 -14 13 -18 -4 -36z m105 35 c-7 -8 -19 -15 -26 -15 -8 0 -14
7 -14 15 0 10 10 15 26 15 22 0 25 -2 14 -15z m60 -7 c0 -19 -2 -20 -10 -8
-13 19 -13 30 0 30 6 0 10 -10 10 -22z m269 -24 c27 -45 27 -46 -6 -42 -24 3
-28 8 -31 41 -4 47 10 47 37 1z m-1255 -5 c-8 -13 -24 -1 -24 18 0 13 3 13 15
3 8 -7 12 -16 9 -21z m945 5 c-6 -7 -15 -11 -21 -8 -5 3 -4 12 3 20 6 7 15 11
21 8 5 -3 4 -12 -3 -20z m431 -48 c0 -4 -11 -6 -25 -6 -23 0 -25 4 -25 42 l0
43 25 -37 c14 -20 25 -39 25 -42z m-1286 43 c31 -24 33 -39 7 -39 -22 0 -45
25 -36 39 4 7 -1 8 -11 4 -12 -4 -15 -3 -10 5 10 17 19 15 50 -9z m918 -11
c-9 -9 -12 -7 -12 12 0 19 3 21 12 12 9 -9 9 -15 0 -24z m-779 1 c10 -11 16
-23 14 -26 -9 -9 -47 17 -47 32 0 21 12 19 33 -6z m367 18 c0 -2 -10 -12 -22
-23 l-23 -19 19 23 c18 21 26 27 26 19z m121 -30 c-11 -12 -24 -18 -27 -14
-10 10 27 48 38 41 6 -4 1 -16 -11 -27z m139 -2 c-12 -15 -40 -21 -40 -8 0 3
8 15 17 25 21 23 43 7 23 -17z m116 -13 c-10 -10 -29 15 -21 28 6 9 10 8 17
-4 6 -10 7 -20 4 -24z m-996 19 c0 -12 -20 -25 -27 -18 -7 7 6 27 18 27 5 0 9
-4 9 -9z m50 -1 c0 -5 -4 -10 -10 -10 -5 0 -10 5 -10 10 0 6 5 10 10 10 6 0
10 -4 10 -10z m310 -5 c11 -13 8 -15 -14 -15 -25 0 -33 10 -19 23 10 11 19 8
33 -8z m148 -3 c2 -7 -7 -12 -22 -12 -27 0 -35 15 -13 23 17 7 30 3 35 -11z
m142 3 c11 -13 8 -15 -14 -15 -25 0 -33 10 -19 23 10 11 19 8 33 -8z m295 5
c3 -5 2 -10 -4 -10 -5 0 -13 5 -16 10 -3 6 -2 10 4 10 5 0 13 -4 16 -10z
m-730 -10 c3 -5 -1 -10 -9 -10 -9 0 -16 5 -16 10 0 6 4 10 9 10 6 0 13 -4 16
-10z m570 0 c3 -5 -3 -10 -15 -10 -12 0 -18 5 -15 10 3 6 10 10 15 10 5 0 12
-4 15 -10z m-1255 -70 c-8 -5 -17 -7 -19 -4 -3 3 1 9 9 14 8 5 17 7 19 4 3 -3
-1 -9 -9 -14z m589 -7 c-24 -8 -86 -35 -138 -59 -51 -24 -95 -44 -97 -44 -3 0
9 27 26 60 l30 59 102 3 c57 2 107 1 112 -1 5 -2 -11 -10 -35 -18z m821 17
l88 0 31 -55 c17 -30 31 -57 31 -59 0 -2 -54 20 -119 50 -66 30 -127 54 -135
54 -9 0 -16 5 -16 11 0 6 7 8 16 5 9 -3 55 -6 104 -6z m500 -6 c0 -2 -7 -4
-15 -4 -8 0 -15 4 -15 10 0 5 7 7 15 4 8 -4 15 -8 15 -10z m-1870 -23 c-12
-22 -19 -25 -45 -14 -14 5 -11 9 16 24 40 20 45 18 29 -10z m85 19 c-3 -5 -13
-10 -21 -10 -8 0 -12 5 -9 10 3 6 13 10 21 10 8 0 12 -4 9 -10z m83 -2 c-7
-20 -68 -23 -68 -4 0 12 10 16 36 16 24 0 34 -4 32 -12z m96 -13 c-21 -33 -32
-32 -63 8 -12 16 -10 17 33 17 l46 0 -16 -25z m76 18 c0 -5 -5 -15 -10 -23 -7
-11 -12 -12 -21 -3 -6 6 -8 16 -5 22 8 12 36 15 36 4z m548 -21 c2 -14 -2 -22
-11 -22 -9 0 -22 -3 -30 -6 -10 -3 -16 3 -19 20 -4 17 0 26 11 29 30 9 46 2
49 -21z m76 19 c11 -18 -6 -41 -30 -41 -19 0 -24 5 -24 25 0 20 5 25 24 25 14
0 27 -4 30 -9z m99 -4 c2 2 2 -9 -1 -24 l-6 -28 -6 25 c-6 24 -6 24 -12 4 -4
-17 -11 -21 -30 -17 -20 4 -24 10 -21 28 4 20 9 22 38 15 19 -4 36 -6 38 -3z
m457 -1 c0 -8 6 -16 13 -19 6 -2 9 -8 5 -12 -5 -5 -17 2 -28 15 -24 28 -24 30
-5 30 8 0 15 -6 15 -14z m100 10 c0 -18 -15 -36 -31 -36 -10 0 -19 2 -19 4 0
2 -3 11 -6 20 -5 13 1 16 25 16 17 0 31 -2 31 -4z m80 -11 c0 -10 -10 -15 -30
-15 -20 0 -30 5 -30 15 0 10 10 15 30 15 20 0 30 -5 30 -15z m60 5 c0 -5 -9
-10 -19 -10 -11 0 -23 5 -26 10 -4 6 5 10 19 10 14 0 26 -4 26 -10z m91 -34
c-17 -7 -25 -5 -36 10 -23 30 -18 35 21 17 33 -16 34 -18 15 -27z m-1053 6 c3
-17 -2 -22 -17 -22 -16 0 -21 6 -21 26 0 33 33 30 38 -4z m310 20 c17 -11 4
-42 -18 -42 -13 0 -16 6 -12 25 5 27 10 29 30 17z m-393 -31 c0 -32 -23 -39
-34 -9 -11 28 -5 40 17 36 10 -2 17 -13 17 -27z m35 2 c0 -22 -2 -25 -10 -13
-13 20 -13 40 0 40 6 0 10 -12 10 -27z m400 15 c0 -19 -18 -43 -25 -36 -9 9 4
48 16 48 5 0 9 -6 9 -12z m-1086 -13 c-4 -8 -10 -12 -15 -9 -14 8 -10 24 6 24
9 0 12 -6 9 -15z m83 -9 c-2 -6 -14 -13 -26 -14 -25 -4 -47 11 -38 25 8 14 69
3 64 -11z m522 2 c12 -31 -10 -44 -26 -15 -6 12 -9 25 -7 29 9 15 25 8 33 -14z
m521 3 c0 -22 -15 -35 -29 -27 -13 9 -1 46 15 46 8 0 14 -9 14 -19z m600 8
c13 -9 12 -10 -2 -5 -10 3 -18 1 -18 -4 0 -16 -27 -11 -34 5 -7 18 31 21 54 4z
m-1480 -5 c0 -7 -27 -34 -34 -34 -4 0 -1 9 6 20 12 19 28 27 28 14z m314 -10
c11 -28 6 -39 -9 -20 -8 11 -15 23 -15 28 0 14 18 9 24 -8z m610 -6 c-9 -30
-10 -31 -28 -25 -21 8 -8 47 16 47 15 0 18 -4 12 -22z m489 7 c-4 -15 -56 -12
-61 3 -3 10 5 13 29 10 19 -2 33 -7 32 -13z m-1505 -12 c2 -9 -7 -13 -27 -13
-30 0 -46 11 -34 24 11 11 56 2 61 -11z m383 -4 c9 -17 8 -23 -2 -30 -21 -13
-25 -11 -37 15 -18 39 18 53 39 15z m662 1 c-6 -22 -23 -38 -23 -21 0 17 12
41 20 41 5 0 6 -9 3 -20z m387 5 c0 -9 -9 -15 -25 -15 -18 0 -23 4 -19 15 4 8
15 15 25 15 10 0 19 -7 19 -15z m-1682 -20 c-6 -14 -14 -25 -18 -25 -4 0 -12
11 -18 25 -11 24 -10 25 18 25 28 0 29 -1 18 -25z m581 -1 c6 -15 9 -29 6 -33
-8 -7 -35 28 -35 46 0 22 16 15 29 -13z m771 21 c0 -10 -24 -55 -29 -55 -3 0
-12 4 -20 9 -19 12 3 51 29 51 11 0 20 -2 20 -5z m558 -21 c-11 -24 -13 -25
-25 -8 -19 26 -16 34 12 34 23 0 24 -2 13 -26z m-1953 -13 c14 -29 13 -32 -21
-89 -28 -49 -44 -64 -82 -80 -26 -11 -48 -19 -50 -17 -4 3 128 215 134 215 2
0 10 -13 19 -29z m115 18 c0 -6 -12 -31 -26 -55 -25 -43 -27 -44 -41 -25 -12
18 -11 24 9 56 22 33 58 48 58 24z m490 -39 c0 -5 -10 -12 -22 -16 -15 -4 -25
-1 -35 12 -18 25 -16 42 5 47 16 4 52 -26 52 -43z m820 41 c0 -5 -9 -19 -20
-32 l-21 -24 16 33 c15 31 25 41 25 23z m481 -22 c19 -27 20 -34 9 -55 -8 -13
-16 -24 -20 -24 -11 0 -60 96 -53 104 15 15 43 4 64 -25z m162 -100 c31 -49
55 -89 52 -89 -2 0 -23 7 -46 17 -32 12 -51 30 -80 76 -42 65 -45 77 -26 108
14 23 5 33 100 -112z m-1870 115 c7 -8 -13 -54 -24 -54 -5 0 -15 14 -24 30
-15 30 -15 30 13 30 16 0 31 -3 35 -6z m1279 -11 c5 -2 1 -17 -7 -33 -14 -26
-18 -28 -40 -18 -23 10 -23 12 -9 39 13 27 25 29 56 12z m341 11 c7 -7 -21
-54 -33 -54 -10 0 -30 47 -23 54 8 8 48 8 56 0z m-1549 -13 c5 -8 -65 -43 -72
-36 -2 2 1 13 8 24 11 21 54 29 64 12z m85 -26 c-19 -32 -59 -65 -59 -50 0 25
47 85 66 85 10 0 7 -10 -7 -35z m1309 -5 c28 -42 28 -54 -1 -35 -20 13 -47 54
-47 71 0 15 27 -6 48 -36z m90 20 c15 -24 10 -25 -28 -5 -36 19 -38 25 -7 25
12 0 28 -9 35 -20z m-1598 -35 c0 -10 -69 -50 -75 -43 -2 2 8 23 23 47 23 40
27 42 39 25 7 -10 13 -23 13 -29z m364 -22 c-26 -19 -40 -16 -58 12 -15 23
-15 25 7 40 21 15 23 14 46 -11 22 -26 22 -28 5 -41z m1030 32 c18 -13 18 -16
2 -40 -19 -29 -24 -30 -54 -9 -22 15 -22 17 -7 34 9 10 14 23 11 28 -8 13 24
4 48 -13z m301 -5 c21 -40 19 -43 -15 -25 -26 13 -29 19 -20 35 14 26 17 25
35 -10z m-1593 -38 c-15 -29 -30 -52 -34 -52 -9 0 -41 60 -36 65 6 6 93 43 95
41 2 -2 -10 -26 -25 -54z m1516 7 c1 -8 -4 -23 -12 -34 -13 -18 -15 -17 -35
23 -11 23 -21 44 -21 47 0 12 65 -23 68 -36z m-1333 -5 c18 -28 18 -29 -27
-55 -14 -7 -21 -4 -34 16 -16 24 -15 26 7 45 31 25 34 25 54 -6z m-396 -6 c11
-15 8 -19 -19 -33 -41 -21 -47 -14 -20 25 12 17 23 30 24 28 1 -2 7 -11 15
-20z m1920 -13 c22 -38 15 -43 -29 -20 -26 14 -28 18 -18 35 17 27 23 25 47
-15z m-339 0 c19 -20 21 -27 10 -40 -17 -20 -33 -19 -61 4 -23 19 -24 19 -5
40 24 27 28 26 56 -4z m-1420 -34 c9 -22 9 -35 0 -50 -12 -23 -26 -26 -65 -11
l-25 10 25 51 c28 55 42 55 65 0z m1621 -14 c23 -44 23 -43 -11 -52 -21 -5
-28 -1 -43 25 -17 29 -17 31 -1 60 20 32 21 32 55 -33z m23 47 c31 -15 33 -19
24 -40 -15 -33 -24 -30 -48 16 -23 46 -23 46 24 24z m-1704 1 c0 -4 -7 -20
-16 -37 l-17 -32 -19 24 c-19 24 -19 24 4 36 24 14 48 18 48 9z m221 -52 c-13
-25 -58 -56 -65 -44 -3 4 7 27 22 49 22 36 28 40 40 28 10 -10 11 -19 3 -33z
m-271 -29 c0 -6 -12 -9 -30 -6 -33 5 -36 12 -19 44 l11 21 19 -24 c10 -13 19
-29 19 -35z m198 31 c-11 -26 -19 -30 -31 -18 -8 7 21 43 34 43 5 0 3 -11 -3
-25z m1426 -4 c12 -13 14 -21 6 -26 -6 -4 -18 1 -25 11 -27 36 -11 48 19 15z
m192 2 c19 -26 17 -30 -16 -35 -16 -3 -30 -3 -30 -2 0 8 24 54 28 54 3 0 11
-8 18 -17z m79 -15 c5 -4 -5 -8 -23 -8 -18 0 -32 2 -32 4 0 2 -3 12 -6 21 -6
14 -3 14 22 3 16 -6 33 -15 39 -20z m-1967 10 c-3 -7 -15 -14 -29 -16 -23 -2
-23 -2 -5 13 24 18 39 20 34 3z m1655 -23 c19 -41 16 -43 -23 -13 -23 16 -27
25 -19 35 17 20 24 16 42 -22z m-1417 -24 c-9 -14 -36 -14 -36 0 0 6 7 8 16 5
12 -5 15 -2 10 11 -6 14 -4 15 5 6 6 -6 8 -16 5 -22z m-348 -1 c-9 -13 -24
-20 -45 -20 -42 0 -42 6 0 24 48 21 60 20 45 -4z m92 13 c0 -16 -35 -43 -57
-43 -27 0 -29 7 -6 32 15 17 63 26 63 11z m1741 -16 c-13 -13 -26 -3 -16 12 3
6 11 8 17 5 6 -4 6 -10 -1 -17z m263 17 c9 -4 21 -15 27 -25 8 -16 6 -19 -16
-19 -22 0 -25 3 -20 23 6 21 5 21 -8 -2 -14 -24 -15 -24 -26 -3 -6 11 -11 23
-11 26 0 8 34 8 54 0z m80 -9 c43 -18 45 -25 8 -25 -16 0 -32 8 -40 20 -15 24
-14 24 32 5z m-2004 -8 c0 -7 -6 -21 -13 -31 -10 -14 -21 -17 -45 -11 -36 8
-37 8 -20 35 15 23 78 29 78 7z m1863 -11 c15 -23 15 -24 -6 -30 -12 -3 -27
-6 -34 -6 -15 0 -36 37 -28 50 12 19 52 10 68 -14z m-1803 -38 c0 -10 -42 -10
-57 0 -10 6 -9 13 4 31 l16 24 18 -24 c10 -13 19 -27 19 -31z m29 20 c-10 -19
-11 -19 -24 -1 -20 26 -18 31 10 25 21 -4 23 -7 14 -24z m1661 25 c0 -5 -5
-15 -10 -23 -9 -13 -11 -13 -19 0 -7 10 -6 17 2 22 15 10 27 10 27 1z m39 -22
c11 -20 -2 -31 -35 -31 -11 0 -11 5 -2 25 13 30 24 32 37 6z m-2002 -9 c10 -6
9 -13 -4 -31 l-16 -24 -13 24 c-7 13 -13 27 -14 32 0 9 32 9 47 -1z m2263 0
c0 -5 -6 -17 -14 -27 -13 -18 -14 -18 -24 2 -6 11 -8 23 -5 27 9 9 43 7 43 -2z
m-2173 -17 c4 -2 -58 -115 -62 -115 -3 0 -11 12 -19 28 -12 25 -11 30 11 65
20 31 28 37 46 31 12 -3 23 -7 24 -9z m267 -10 c-17 -26 -29 -31 -39 -16 -5 9
31 41 47 41 5 0 1 -11 -8 -25z m1551 9 c12 -13 13 -20 5 -28 -8 -8 -15 -6 -26
8 -26 36 -10 51 21 20z m295 -18 c20 -34 20 -35 2 -65 -21 -35 -22 -35 -65 41
l-27 47 22 4 c13 2 28 5 35 6 6 0 21 -14 33 -33z m162 -88 c43 -67 76 -123 74
-125 -2 -2 -24 5 -49 16 -38 17 -55 33 -92 91 -25 38 -45 74 -45 80 0 14 22
60 29 60 3 -1 41 -56 83 -122z m-2407 82 c15 -29 14 -31 -29 -99 -37 -57 -54
-73 -92 -90 -26 -12 -49 -19 -51 -17 -6 6 140 236 149 236 4 0 14 -13 23 -30z
m175 -10 c7 -17 10 -33 6 -37 -10 -10 -86 -42 -86 -36 0 10 55 103 61 103 4 0
12 -14 19 -30z m50 25 c0 -3 -5 -14 -12 -24 -11 -18 -13 -18 -25 -3 -18 25
-16 32 12 32 14 0 25 -2 25 -5z m1900 0 c0 -3 -5 -14 -12 -24 -11 -18 -13 -18
-25 -3 -18 25 -16 32 12 32 14 0 25 -2 25 -5z m45 -38 c14 -24 25 -47 25 -50
0 -5 -69 20 -79 29 -4 4 19 64 25 64 2 0 15 -20 29 -43z m-1885 24 c0 -5 -8
-11 -17 -14 -10 -2 -26 -8 -37 -12 -16 -7 -17 -6 -7 13 11 22 61 32 61 13z
m1785 -2 c11 -17 2 -18 -25 -4 -24 14 -24 14 -3 15 12 0 25 -5 28 -11z m-1737
-65 c-17 -24 -33 -44 -35 -44 -2 0 8 22 23 50 15 27 31 47 36 44 4 -3 -6 -25
-24 -50z m82 36 c-6 -11 -13 -20 -16 -20 -2 0 0 9 6 20 6 11 13 20 16 20 2 0
0 -9 -6 -20z m1511 -12 c8 -15 8 -18 0 -14 -6 4 -16 16 -22 28 -8 15 -8 18 0
14 6 -4 16 -16 22 -28z m75 -20 c29 -59 29 -59 -15 -4 -26 32 -33 56 -16 56 3
0 17 -24 31 -52z m81 -18 c-6 -16 -14 -30 -17 -30 -6 0 -50 85 -50 95 0 3 18
-4 39 -15 38 -19 39 -21 28 -50z m-1777 56 c0 -7 -52 -96 -56 -96 -5 0 -36 61
-32 65 5 5 72 33 81 34 4 1 7 -1 7 -3z m2002 -68 c15 -23 25 -44 24 -46 -3 -2
-71 26 -85 35 -7 4 18 53 26 53 5 0 20 -19 35 -42z m-2262 11 c13 -24 15 -21
-27 -43 -45 -23 -46 -21 -21 24 26 46 33 48 48 19z m183 -27 c17 -28 17 -33 3
-61 -14 -27 -19 -29 -53 -24 -21 3 -39 7 -41 8 -7 6 53 115 63 112 5 -2 18
-18 28 -35z m1910 -12 c15 -28 27 -54 27 -59 0 -5 -13 -11 -29 -13 -25 -4 -32
1 -47 28 -15 27 -16 36 -4 63 7 17 15 31 19 31 3 0 18 -23 34 -50z m50 28 c15
-5 27 -16 27 -24 0 -17 -21 -64 -30 -64 -5 0 -39 60 -59 104 -2 5 5 6 15 2 11
-5 31 -13 47 -18z m-2039 -35 c-15 -27 -29 -50 -30 -51 -1 -2 -10 10 -19 28
-19 37 -20 35 25 54 52 22 53 20 24 -31z m-114 -28 c-13 -16 -40 -21 -40 -7 0
10 42 32 49 26 2 -2 -2 -10 -9 -19z m60 -17 c0 -10 -12 -10 -34 -2 -13 5 -13
10 -5 27 11 20 12 20 25 2 8 -10 14 -22 14 -27z m2154 0 c-3 -5 -14 -8 -24 -8
-17 0 -18 3 -8 25 10 23 12 23 24 7 7 -9 10 -20 8 -24z m60 10 c-5 -8 -44 -12
-44 -4 0 2 -3 11 -6 20 -5 13 -1 13 25 3 16 -6 28 -15 25 -19z m-2296 -23 c2
-2 -2 -13 -8 -26 l-12 -22 -14 24 c-19 34 -17 41 9 33 12 -3 23 -8 25 -9z
m307 -44 c-9 -29 -23 -51 -31 -51 -10 0 -7 14 13 55 15 30 29 53 31 50 2 -2
-4 -26 -13 -54z m2025 51 c0 -4 -7 -18 -16 -30 -9 -13 -14 -26 -11 -29 3 -2
13 9 22 26 8 17 17 31 19 31 2 0 13 -15 24 -34 l20 -35 -39 -6 c-22 -4 -42 -5
-43 -3 -1 1 -12 20 -25 40 l-22 37 23 4 c39 7 48 7 48 -1z m-2368 -74 c-5 -5
-23 -7 -40 -3 l-31 6 21 35 21 36 20 -32 c14 -22 17 -34 9 -42z m128 55 c2 -2
-4 -19 -15 -38 -14 -28 -24 -35 -47 -35 -36 0 -44 20 -24 59 14 27 20 30 49
24 17 -3 34 -8 37 -10z m2170 -15 c28 -46 25 -58 -13 -58 -28 0 -36 5 -50 35
-13 27 -14 37 -4 40 6 2 19 6 27 8 8 3 16 6 18 6 1 1 11 -14 22 -31z m-240
-50 c1 -19 -18 -6 -24 16 -3 13 -8 32 -12 43 -3 10 4 2 15 -17 11 -19 20 -38
21 -42z m-2142 40 c-9 -13 -18 -22 -22 -20 -3 1 -18 2 -33 2 l-28 1 35 19 c50
27 67 26 48 -2z m296 16 c14 -5 14 -9 0 -35 -8 -16 -17 -29 -19 -29 -5 0 -35
56 -35 65 0 7 34 7 54 -1z m1986 1 c0 -11 -24 -55 -30 -55 -10 0 -30 47 -23
54 7 7 53 8 53 1z m275 -9 c43 -18 44 -26 5 -26 -19 0 -33 7 -40 20 -13 24
-10 24 35 6z m-2310 -36 l16 -30 -36 0 c-39 0 -39 0 -23 35 15 33 24 32 43 -5z
m2075 -17 c0 -7 -11 -13 -25 -13 -29 0 -28 0 -15 36 10 26 11 26 25 8 8 -10
15 -25 15 -31z m-2352 2 c6 -5 -18 -45 -27 -45 -7 0 -31 43 -31 57 0 5 52 -5
58 -12z m2626 -16 l-16 -31 -15 22 c-13 19 -13 24 -2 31 8 5 22 9 32 9 16 0
17 -2 1 -31z m-2285 -31 c-16 -49 -39 -76 -39 -47 0 12 47 99 54 99 2 0 -5
-24 -15 -52z m2233 10 l21 -36 -22 -31 c-13 -17 -27 -29 -32 -25 -10 6 -69
105 -69 116 0 6 53 16 73 14 5 -1 18 -18 29 -38z m132 -32 c25 -40 46 -77 46
-80 0 -4 -17 -6 -37 -4 -31 2 -42 10 -67 46 l-30 43 18 34 c11 19 20 35 22 35
1 0 23 -33 48 -74z m-2759 33 c15 -29 15 -32 -10 -75 -24 -41 -29 -44 -66 -44
-35 0 -40 3 -34 18 10 27 79 132 87 132 4 0 15 -14 23 -31z m155 25 c0 -11
-60 -113 -70 -119 -9 -6 -40 33 -40 50 0 5 9 25 20 43 16 26 26 32 55 32 19 0
35 -3 35 -6z m54 -26 l17 -23 -6 22 c-5 18 -3 22 9 17 9 -3 16 -9 16 -14 0
-11 -31 -36 -75 -58 -22 -12 -36 -21 -32 -22 4 0 22 7 38 16 17 8 33 13 36 10
3 -3 -12 -12 -33 -21 -51 -21 -60 -8 -33 49 26 51 39 56 63 24z m2046 -10 c25
-42 25 -50 -2 -46 -16 2 -24 12 -29 35 -6 29 -3 43 8 43 2 0 12 -15 23 -32z
m209 11 c-9 -17 -13 -19 -20 -8 -5 8 -3 16 4 21 22 14 28 8 16 -13z m65 -21
c14 -23 24 -44 22 -46 -6 -6 -86 30 -86 39 0 13 23 49 32 49 4 0 18 -19 32
-42z m-2249 22 c-3 -5 -11 -10 -16 -10 -6 0 -7 5 -4 10 3 6 11 10 16 10 6 0 7
-4 4 -10z m207 -30 c-5 -45 -8 -50 -38 -50 -29 0 -30 8 -7 55 22 47 49 44 45
-5z m1843 10 c17 -34 18 -40 6 -40 -5 0 -11 8 -14 18 -2 9 -8 25 -12 35 -12
28 3 19 20 -13z m95 21 c0 -5 -7 -11 -14 -14 -10 -4 -13 -1 -9 9 6 15 23 19
23 5z m-2128 -23 c-24 -11 -46 -17 -49 -14 -7 6 56 34 77 34 8 0 -5 -9 -28
-20z m20 -37 c-17 -28 -19 -29 -35 -13 -16 15 -15 17 15 33 18 10 34 16 36 14
2 -1 -5 -17 -16 -34z m2102 -6 c-9 -23 -22 -18 -39 16 l-16 30 30 -16 c20 -10
28 -20 25 -30z m272 -52 c-7 -7 -66 7 -66 16 0 3 7 17 16 30 l16 23 20 -32
c10 -18 17 -34 14 -37z m-2636 16 c0 -10 -40 -22 -47 -15 -4 3 -1 18 6 33 12
27 13 27 27 8 8 -10 14 -22 14 -26z m218 18 c27 -29 20 -37 -30 -37 -42 0 -50
17 -22 44 21 21 27 20 52 -7z m2196 1 c23 -32 20 -38 -18 -38 -43 0 -54 15
-30 41 22 24 29 24 48 -3z m-174 -7 c15 -28 13 -31 -19 -31 -33 0 -46 13 -37
35 8 21 44 18 56 -4z m70 0 c7 -14 7 -22 -1 -27 -12 -7 -29 12 -29 34 0 19 18
14 30 -7z m-2182 -17 c-9 -9 -24 -14 -34 -12 -16 3 -14 7 11 20 35 19 46 15
23 -8z m182 16 c11 -7 12 -12 3 -21 -16 -16 -44 -4 -37 16 7 17 13 18 34 5z
m2155 -2 c29 -13 33 -28 7 -28 -19 0 -42 18 -42 32 0 11 4 10 35 -4z m40 2 c3
-6 -1 -7 -9 -4 -18 7 -21 14 -7 14 6 0 13 -4 16 -10z m-2087 -12 c-7 -20 -68
-23 -68 -4 0 12 10 16 36 16 24 0 34 -4 32 -12z m-608 -78 c0 -23 -4 -30 -20
-30 -24 0 -25 4 -4 35 21 32 24 31 24 -5z"/>
<path d="M3880 1031 c0 -5 5 -13 10 -16 6 -3 10 -2 10 4 0 5 -4 13 -10 16 -5
3 -10 2 -10 -4z"/>
<path d="M9732 3449 c-264 -44 -441 -232 -442 -469 0 -180 93 -333 249 -411
36 -19 69 -37 72 -41 3 -5 35 -14 70 -22 71 -15 147 -8 175 15 9 8 18 13 18
11 1 -2 8 -1 16 2 8 2 27 7 42 10 15 3 33 12 40 19 17 15 86 14 117 -3 34 -17
85 0 158 53 98 73 153 164 174 293 17 106 -14 247 -75 336 -21 30 -26 33 -69
30 l-47 -3 0 39 c0 50 -16 64 -115 97 -156 53 -259 64 -383 44z"/>
<path d="M142 3317 l-42 -43 0 -77 c0 -77 1 -78 39 -120 l40 -42 98 -7 c54 -4
104 -8 111 -9 11 -2 14 -209 14 -1239 0 -38 -1 -333 -1 -655 l-1 -585 -100 0
-101 0 -49 -46 -50 -47 0 -74 c0 -74 0 -74 42 -119 58 -60 102 -69 343 -68
267 1 375 5 375 13 0 4 13 6 29 3 17 -2 42 2 58 10 35 17 130 23 147 9 7 -6
53 -13 102 -16 49 -2 121 -10 159 -15 90 -14 562 -8 630 8 39 9 60 23 99 62
l48 51 -4 70 c-3 66 -6 71 -46 112 l-42 42 -135 3 -135 4 -1 251 c-1 139 0
328 1 421 l2 170 41 53 40 54 25 -46 c15 -26 34 -47 46 -50 12 -2 54 -11 94
-20 77 -17 200 -15 402 6 151 17 370 69 370 89 0 4 21 15 46 25 68 26 185 107
239 167 147 161 230 369 255 640 20 208 -17 439 -99 614 -102 216 -236 339
-431 394 -181 50 -181 50 -1323 50 l-1068 0 -35 -26 -34 -27 -40 27 c-62 41
-106 36 -158 -17z m1802 -361 c3 -39 9 -255 12 -481 4 -225 10 -415 15 -421 5
-6 5 -23 -1 -40 -5 -16 -13 -75 -18 -131 -9 -94 -13 -107 -45 -150 -42 -59
-47 -71 -35 -103 10 -26 3 -70 -10 -70 -5 0 -15 21 -23 48 -11 33 -23 51 -42
60 l-27 13 0 659 0 659 50 7 c28 4 50 10 50 13 0 4 15 7 34 8 l34 1 6 -72z
m-1009 -206 c-3 -5 -15 -10 -25 -10 -10 0 -22 5 -25 10 -4 6 7 10 25 10 18 0
29 -4 25 -10z m2055 -287 c0 -35 -29 -63 -65 -63 -31 0 -68 43 -60 69 6 21 29
28 87 27 36 -1 38 -3 38 -33z"/>
<path d="M8010 2349 c-137 -30 -308 -39 -705 -39 l-372 0 -48 -51 -47 -51 4
-64 c4 -60 7 -68 44 -105 32 -31 51 -42 85 -46 24 -3 46 -10 49 -14 4 -5 23
-10 43 -11 l37 -3 0 -138 c0 -154 16 -370 30 -404 5 -11 22 -29 39 -39 48 -29
41 -68 -17 -98 -18 -9 -37 -28 -42 -42 -6 -14 -10 -164 -10 -340 l0 -314 -81
0 -82 0 -48 -49 -49 -48 0 -70 c0 -75 5 -85 62 -127 26 -20 47 -27 70 -25 18
2 39 0 46 -5 17 -10 163 3 180 17 16 13 108 10 134 -4 10 -5 62 -13 116 -17
140 -10 868 -7 926 4 43 8 54 15 82 54 29 40 33 53 33 112 1 58 -2 71 -25 98
-40 47 -74 60 -159 60 l-75 0 0 452 0 452 37 -44 c46 -53 136 -113 197 -130
25 -7 46 -17 46 -22 0 -6 9 -8 20 -5 11 3 23 1 26 -4 7 -12 94 -11 94 1 0 6
11 8 25 4 15 -4 25 -2 25 5 0 6 6 11 14 11 7 0 45 16 84 35 134 67 233 203
266 367 20 95 20 153 1 241 -52 247 -225 391 -450 374 -123 -9 -219 -54 -337
-158 l-48 -41 0 69 c0 44 -5 76 -15 90 -15 21 -103 84 -114 82 -3 -1 -44 -10
-91 -20z m175 -760 c20 -37 19 -42 -5 -29 -11 6 -20 16 -20 22 0 6 -7 19 -16
29 -15 16 -14 17 5 12 12 -3 28 -18 36 -34z"/>
<path d="M10175 2349 c-148 -29 -316 -39 -693 -39 l-358 0 -44 -45 c-44 -45
-45 -47 -45 -111 l0 -65 52 -50 c41 -39 58 -49 85 -49 19 0 38 -4 44 -10 5 -5
23 -10 41 -12 29 -2 31 -5 39 -58 5 -30 8 -339 6 -687 l-2 -631 -90 -4 -90 -3
-42 -43 c-40 -40 -43 -46 -43 -98 0 -50 3 -58 33 -85 23 -21 43 -29 68 -29 25
0 48 -9 74 -30 34 -27 48 -31 131 -37 163 -12 1171 -15 1183 -3 5 5 23 10 39
10 20 0 42 13 75 44 l47 45 0 70 c0 70 -1 71 -43 113 l-42 43 -90 3 -90 4 0
848 0 848 -51 41 c-58 46 -63 47 -194 20z"/>
<path d="M12325 2266 c-110 -72 -132 -83 -152 -75 -14 5 -39 9 -56 9 -26 0
-37 7 -50 30 -15 24 -32 34 -100 54 -250 75 -477 76 -697 1 -308 -105 -520
-400 -520 -724 0 -56 5 -106 13 -121 19 -37 96 -92 121 -86 12 3 30 -2 40 -9
10 -8 23 -12 27 -9 18 11 -13 -52 -39 -78 -17 -19 -36 -28 -57 -28 -23 0 -41
-11 -75 -45 l-45 -46 -3 -398 c-3 -459 -9 -432 93 -456 79 -19 105 -18 127 2
38 34 90 48 182 47 63 -1 91 -5 97 -15 5 -8 9 -9 9 -4 0 6 4 5 8 -1 12 -20
206 -82 325 -105 157 -30 387 -23 527 15 52 15 98 32 102 39 4 7 8 8 8 2 0 -7
3 -7 8 0 4 6 34 23 67 39 288 137 448 432 406 749 -16 118 -45 209 -91 281
l-39 61 25 26 24 25 0 246 0 246 -36 29 -36 29 36 27 36 28 0 108 c0 90 -3
110 -17 123 -22 19 -114 68 -129 68 -6 0 -68 -38 -139 -84z m-469 -316 c43
-11 90 -22 103 -25 47 -8 136 -60 191 -112 47 -43 120 -151 120 -177 0 -3 -19
6 -42 20 -23 15 -67 39 -99 54 -53 25 -62 26 -130 18 -75 -9 -94 -21 -125 -73
-6 -11 -15 -15 -22 -11 -9 5 -8 14 3 36 8 16 15 39 15 51 0 35 -81 168 -116
190 -18 10 -37 26 -44 34 -11 13 -7 15 27 15 22 0 75 -9 119 -20z m-661 -1052
c39 -25 117 -69 175 -98 58 -29 107 -56 108 -61 2 -5 8 -7 13 -3 5 3 9 0 9 -6
0 -6 5 -8 10 -5 6 3 10 1 10 -5 0 -7 7 -10 15 -6 8 3 15 1 15 -5 0 -6 4 -8 9
-5 5 4 11 2 13 -2 4 -10 190 -88 201 -84 4 1 7 -9 7 -23 0 -20 -6 -25 -36 -31
-46 -8 -172 3 -249 22 -189 48 -360 199 -406 357 -8 28 -7 28 14 14 12 -8 54
-35 92 -59z"/>
</g>
</svg>
